<svg xmlns="http://www.w3.org/2000/svg" xmlns:xlink="http://www.w3.org/1999/xlink" width="1037" zoomAndPan="magnify" viewBox="0 0 777.75 809.999993" height="1080" preserveAspectRatio="xMidYMid meet" version="1.0"><defs><g/></defs><path fill="#8d33ff" d="M 651.089844 482.832031 C 660.382812 448.464844 613.660156 429.296875 615.253906 426.351562 C 633.65625 392.351562 634.53125 430.609375 655.371094 426.222656 C 679.261719 421.175781 668.089844 447.363281 692.371094 422.074219 C 703.105469 410.902344 711.460938 391.875 703.128906 375.941406 C 673.945312 320.128906 663.648438 395.992188 636.148438 399.324219 C 596.085938 404.15625 586.277344 379.660156 622.800781 343.878906 C 640.179688 326.859375 633.300781 314.199219 635.167969 293.050781 C 639.101562 248.632812 582.265625 267.121094 579.691406 304.347656 C 528.070312 307.539062 580.003906 245.917969 522.550781 245.742188 C 522.476562 238.542969 527.933594 229.324219 522.90625 224.171875 C 519.597656 220.765625 505.140625 218.621094 502.125 215.933594 C 472.324219 254.984375 469.488281 203.613281 481.207031 177.546875 C 497.769531 140.707031 558.894531 200.25 552.78125 160.523438 C 528.070312 0.03125 432.351562 60.164062 456.425781 185.988281 C 437.546875 188.972656 418.949219 195.863281 402.132812 205.898438 C 383.925781 190.351562 392.546875 162.429688 377.703125 145.105469 C 356.679688 120.558594 339.269531 165.945312 349.855469 193.382812 C 327.960938 194.902344 319.390625 175.808594 299.425781 184.109375 C 275.242188 194.160156 281.84375 210.726562 265.175781 221.410156 C 276.980469 213.832031 212.285156 228.785156 228.230469 229.226562 C 194.929688 228.3125 205.914062 234.371094 171.902344 211.761719 C 155.988281 201.1875 164.859375 178.710938 140.679688 173.253906 C 102.859375 164.726562 73.949219 230.542969 91.996094 261.484375 C 113.457031 298.265625 162.46875 275.390625 167.039062 329.035156 C 157.25 332.355469 150.273438 343.308594 136.539062 344.699219 C 154.921875 418.117188 114.492188 386.109375 95.410156 438.136719 C 70.777344 505.289062 146.082031 485.496094 179.984375 489.140625 C 245.855469 496.234375 234.503906 516.144531 212.554688 561.464844 C 203.464844 580.222656 174.734375 580.472656 189.914062 609.148438 C 202.9375 633.71875 234.933594 625.828125 240.28125 601.828125 C 314.109375 611.164062 131.65625 737.0625 294.648438 746.441406 C 323.1875 748.089844 308.070312 690.078125 316.640625 662.339844 C 341.234375 664.066406 356.585938 693.777344 377.886719 691.277344 C 407.082031 687.847656 379.558594 644.832031 428.253906 654.707031 C 482.867188 665.769531 462.039062 809.789062 519.425781 805.84375 C 636.546875 797.800781 514.015625 693.574219 457.761719 662.621094 C 453.695312 613.804688 493.023438 643.117188 528.871094 648.011719 C 552.070312 651.195312 549.578125 604.878906 535.617188 584.613281 C 554.882812 576.085938 564.824219 567.773438 578.882812 557.292969 C 595.0625 582.984375 687.324219 660.066406 718.449219 625.167969 C 760.828125 577.679688 614.371094 547.355469 599.871094 535.558594 C 597.597656 524.53125 602.621094 522.320312 606.867188 513.742188 C 606.867188 513.742188 645.90625 502.042969 651.089844 482.832031 " fill-opacity="1" fill-rule="nonzero"/><path fill="#8d33ff" d="M 661.179688 196.863281 C 661.179688 218.996094 643.242188 236.9375 621.109375 236.9375 C 598.976562 236.9375 581.039062 218.996094 581.039062 196.863281 C 581.039062 174.730469 598.976562 156.792969 621.109375 156.792969 C 643.242188 156.792969 661.179688 174.730469 661.179688 196.863281 " fill-opacity="1" fill-rule="nonzero"/><path fill="#8d33ff" d="M 161.59375 549.511719 C 161.59375 571.652344 143.65625 589.59375 121.523438 589.59375 C 99.390625 589.59375 81.449219 571.652344 81.449219 549.511719 C 81.449219 527.378906 99.390625 509.4375 121.523438 509.4375 C 143.65625 509.4375 161.59375 527.378906 161.59375 549.511719 " fill-opacity="1" fill-rule="nonzero"/><path fill="#8d33ff" d="M 81.449219 440.851562 C 81.449219 459.761719 63.511719 475.089844 41.378906 475.089844 C 19.234375 475.089844 1.296875 459.761719 1.296875 440.851562 C 1.296875 421.941406 19.234375 406.625 41.378906 406.625 C 63.511719 406.625 81.449219 421.941406 81.449219 440.851562 " fill-opacity="1" fill-rule="nonzero"/><path fill="#8d33ff" d="M 57.398438 373.191406 C 57.398438 382.808594 48.277344 390.59375 37.023438 390.59375 C 25.769531 390.59375 16.636719 382.808594 16.636719 373.191406 C 16.636719 363.578125 25.769531 355.78125 37.023438 355.78125 C 48.277344 355.78125 57.398438 363.578125 57.398438 373.191406 " fill-opacity="1" fill-rule="nonzero"/><path fill="#8d33ff" d="M 264.796875 180.832031 C 264.796875 190.449219 255.667969 198.246094 244.410156 198.246094 C 233.15625 198.246094 224.035156 190.449219 224.035156 180.832031 C 224.035156 171.21875 233.15625 163.433594 244.410156 163.433594 C 255.667969 163.433594 264.796875 171.21875 264.796875 180.832031 " fill-opacity="1" fill-rule="nonzero"/><path fill="#8d33ff" d="M 752.019531 346.476562 C 752.019531 365.65625 740.050781 381.203125 725.292969 381.203125 C 710.546875 381.203125 698.578125 365.65625 698.578125 346.476562 C 698.578125 327.300781 710.546875 311.742188 725.292969 311.742188 C 740.050781 311.742188 752.019531 327.300781 752.019531 346.476562 " fill-opacity="1" fill-rule="nonzero"/><path fill="#8d33ff" d="M 754.636719 449.335938 C 754.636719 458.886719 748.675781 466.628906 741.324219 466.628906 C 733.984375 466.628906 728.019531 458.886719 728.019531 449.335938 C 728.019531 439.785156 733.984375 432.035156 741.324219 432.035156 C 748.675781 432.035156 754.636719 439.785156 754.636719 449.335938 " fill-opacity="1" fill-rule="nonzero"/><path fill="#8d33ff" d="M 776.003906 345.207031 C 776.003906 354.757812 770.042969 362.507812 762.703125 362.507812 C 755.351562 362.507812 749.398438 354.757812 749.398438 345.207031 C 749.398438 335.65625 755.351562 327.914062 762.703125 327.914062 C 770.042969 327.914062 776.003906 335.65625 776.003906 345.207031 " fill-opacity="1" fill-rule="nonzero"/><path fill="#8d33ff" d="M 626.402344 143.433594 C 626.402344 152.996094 620.441406 160.738281 613.089844 160.738281 C 605.746094 160.738281 599.785156 152.996094 599.785156 143.433594 C 599.785156 133.882812 605.746094 126.144531 613.089844 126.144531 C 620.441406 126.144531 626.402344 133.882812 626.402344 143.433594 " fill-opacity="1" fill-rule="nonzero"/><path fill="#8d33ff" d="M 145.507812 319.765625 C 145.507812 329.316406 139.558594 337.054688 132.207031 337.054688 C 124.855469 337.054688 118.902344 329.316406 118.902344 319.765625 C 118.902344 310.203125 124.855469 302.460938 132.207031 302.460938 C 139.558594 302.460938 145.507812 310.203125 145.507812 319.765625 " fill-opacity="1" fill-rule="nonzero"/><path fill="#8d33ff" d="M 324.554688 747.207031 C 324.554688 756.769531 318.605469 764.507812 311.25 764.507812 C 303.910156 764.507812 297.949219 756.769531 297.949219 747.207031 C 297.949219 737.65625 303.910156 729.914062 311.25 729.914062 C 318.605469 729.914062 324.554688 737.65625 324.554688 747.207031 " fill-opacity="1" fill-rule="nonzero"/><g fill="#8d33ff" fill-opacity="1"><g transform="translate(182.876183, 417.371023)"><g><path d="M 18.578125 0 L 15.5625 -7.71875 L 5.84375 -7.71875 L 2.859375 0 L 0 0 L 9.59375 -24.359375 L 11.96875 -24.359375 L 21.5 0 Z M 14.6875 -10.25 L 11.859375 -17.765625 C 11.492188 -18.722656 11.117188 -19.890625 10.734375 -21.265625 C 10.492188 -20.210938 10.144531 -19.046875 9.6875 -17.765625 L 6.84375 -10.25 Z M 14.6875 -10.25 "/></g></g></g><g fill="#8d33ff" fill-opacity="1"><g transform="translate(204.382422, 417.371023)"><g><path d="M 15.359375 0 L 15.359375 -11.765625 C 15.359375 -13.242188 15.019531 -14.347656 14.34375 -15.078125 C 13.675781 -15.804688 12.625 -16.171875 11.1875 -16.171875 C 9.28125 -16.171875 7.882812 -15.65625 7 -14.625 C 6.113281 -13.601562 5.671875 -11.910156 5.671875 -9.546875 L 5.671875 0 L 2.921875 0 L 2.921875 -18.1875 L 5.15625 -18.1875 L 5.609375 -15.703125 L 5.734375 -15.703125 C 6.304688 -16.597656 7.097656 -17.289062 8.109375 -17.78125 C 9.128906 -18.269531 10.265625 -18.515625 11.515625 -18.515625 C 13.703125 -18.515625 15.347656 -17.984375 16.453125 -16.921875 C 17.566406 -15.867188 18.125 -14.179688 18.125 -11.859375 L 18.125 0 Z M 13.3125 -20.625 C 12.832031 -20.625 12.363281 -20.722656 11.90625 -20.921875 C 11.457031 -21.128906 11.015625 -21.359375 10.578125 -21.609375 C 10.140625 -21.859375 9.71875 -22.082031 9.3125 -22.28125 C 8.914062 -22.488281 8.53125 -22.59375 8.15625 -22.59375 C 7.59375 -22.59375 7.171875 -22.425781 6.890625 -22.09375 C 6.609375 -21.769531 6.390625 -21.269531 6.234375 -20.59375 L 4.609375 -20.59375 C 4.753906 -21.925781 5.144531 -22.972656 5.78125 -23.734375 C 6.414062 -24.492188 7.238281 -24.875 8.25 -24.875 C 8.757812 -24.875 9.25 -24.769531 9.71875 -24.5625 C 10.195312 -24.363281 10.648438 -24.140625 11.078125 -23.890625 C 11.515625 -23.640625 11.929688 -23.410156 12.328125 -23.203125 C 12.722656 -23.003906 13.097656 -22.90625 13.453125 -22.90625 C 13.992188 -22.90625 14.394531 -23.066406 14.65625 -23.390625 C 14.925781 -23.710938 15.144531 -24.21875 15.3125 -24.90625 L 16.96875 -24.90625 C 16.820312 -23.570312 16.4375 -22.523438 15.8125 -21.765625 C 15.1875 -21.003906 14.351562 -20.625 13.3125 -20.625 Z M 13.3125 -20.625 "/></g></g></g><g fill="#8d33ff" fill-opacity="1"><g transform="translate(225.241489, 417.371023)"><g><path d="M 14.109375 0 L 13.5625 -2.59375 L 13.421875 -2.59375 C 12.515625 -1.445312 11.609375 -0.671875 10.703125 -0.265625 C 9.804688 0.128906 8.679688 0.328125 7.328125 0.328125 C 5.523438 0.328125 4.113281 -0.132812 3.09375 -1.0625 C 2.070312 -1.988281 1.5625 -3.3125 1.5625 -5.03125 C 1.5625 -8.695312 4.5 -10.617188 10.375 -10.796875 L 13.453125 -10.90625 L 13.453125 -12.03125 C 13.453125 -13.457031 13.144531 -14.507812 12.53125 -15.1875 C 11.914062 -15.875 10.9375 -16.21875 9.59375 -16.21875 C 8.070312 -16.21875 6.359375 -15.75 4.453125 -14.8125 L 3.59375 -16.921875 C 4.488281 -17.410156 5.46875 -17.789062 6.53125 -18.0625 C 7.601562 -18.34375 8.675781 -18.484375 9.75 -18.484375 C 11.925781 -18.484375 13.535156 -18 14.578125 -17.03125 C 15.617188 -16.070312 16.140625 -14.53125 16.140625 -12.40625 L 16.140625 0 Z M 7.875 -1.9375 C 9.59375 -1.9375 10.941406 -2.40625 11.921875 -3.34375 C 12.898438 -4.289062 13.390625 -5.609375 13.390625 -7.296875 L 13.390625 -8.9375 L 10.640625 -8.828125 C 8.441406 -8.753906 6.859375 -8.414062 5.890625 -7.8125 C 4.929688 -7.207031 4.453125 -6.269531 4.453125 -5 C 4.453125 -4 4.75 -3.238281 5.34375 -2.71875 C 5.945312 -2.195312 6.789062 -1.9375 7.875 -1.9375 Z M 7.875 -1.9375 "/></g></g></g><g fill="#8d33ff" fill-opacity="1"><g transform="translate(244.142426, 417.371023)"><g><path d="M 15.296875 -2.4375 L 15.15625 -2.4375 C 13.875 -0.59375 11.96875 0.328125 9.4375 0.328125 C 7.0625 0.328125 5.210938 -0.484375 3.890625 -2.109375 C 2.566406 -3.734375 1.90625 -6.046875 1.90625 -9.046875 C 1.90625 -12.046875 2.566406 -14.375 3.890625 -16.03125 C 5.222656 -17.6875 7.070312 -18.515625 9.4375 -18.515625 C 11.90625 -18.515625 13.796875 -17.617188 15.109375 -15.828125 L 15.328125 -15.828125 L 15.21875 -17.140625 L 15.15625 -18.421875 L 15.15625 -25.8125 L 17.90625 -25.8125 L 17.90625 0 L 15.671875 0 Z M 9.796875 -1.96875 C 11.671875 -1.96875 13.03125 -2.476562 13.875 -3.5 C 14.726562 -4.53125 15.15625 -6.1875 15.15625 -8.46875 L 15.15625 -9.046875 C 15.15625 -11.617188 14.722656 -13.457031 13.859375 -14.5625 C 13.003906 -15.664062 11.632812 -16.21875 9.75 -16.21875 C 8.132812 -16.21875 6.898438 -15.585938 6.046875 -14.328125 C 5.191406 -13.078125 4.765625 -11.304688 4.765625 -9.015625 C 4.765625 -6.691406 5.1875 -4.9375 6.03125 -3.75 C 6.882812 -2.5625 8.140625 -1.96875 9.796875 -1.96875 Z M 9.796875 -1.96875 "/></g></g></g><g fill="#8d33ff" fill-opacity="1"><g transform="translate(264.968304, 417.371023)"><g><path d="M 5.671875 0 L 2.921875 0 L 2.921875 -18.1875 L 5.671875 -18.1875 Z M 2.6875 -23.109375 C 2.6875 -23.742188 2.84375 -24.207031 3.15625 -24.5 C 3.46875 -24.789062 3.851562 -24.9375 4.3125 -24.9375 C 4.757812 -24.9375 5.140625 -24.785156 5.453125 -24.484375 C 5.773438 -24.191406 5.9375 -23.734375 5.9375 -23.109375 C 5.9375 -22.492188 5.773438 -22.03125 5.453125 -21.71875 C 5.140625 -21.414062 4.757812 -21.265625 4.3125 -21.265625 C 3.851562 -21.265625 3.46875 -21.414062 3.15625 -21.71875 C 2.84375 -22.03125 2.6875 -22.492188 2.6875 -23.109375 Z M 2.6875 -23.109375 "/></g></g></g><g fill="#8d33ff" fill-opacity="1"><g transform="translate(273.564162, 417.371023)"><g><path d="M 11.21875 -18.515625 C 12.019531 -18.515625 12.742188 -18.445312 13.390625 -18.3125 L 13.015625 -15.765625 C 12.253906 -15.929688 11.585938 -16.015625 11.015625 -16.015625 C 9.546875 -16.015625 8.285156 -15.414062 7.234375 -14.21875 C 6.191406 -13.019531 5.671875 -11.53125 5.671875 -9.75 L 5.671875 0 L 2.921875 0 L 2.921875 -18.1875 L 5.1875 -18.1875 L 5.515625 -14.8125 L 5.640625 -14.8125 C 6.316406 -16 7.128906 -16.910156 8.078125 -17.546875 C 9.035156 -18.191406 10.082031 -18.515625 11.21875 -18.515625 Z M 11.21875 -18.515625 "/></g></g></g><g fill="#8d33ff" fill-opacity="1"><g transform="translate(287.437013, 417.371023)"><g/></g></g><g fill="#8d33ff" fill-opacity="1"><g transform="translate(296.265192, 417.371023)"><g><path d="M 5.515625 -18.1875 L 5.515625 -6.390625 C 5.515625 -4.910156 5.847656 -3.800781 6.515625 -3.0625 C 7.191406 -2.332031 8.25 -1.96875 9.6875 -1.96875 C 11.59375 -1.96875 12.984375 -2.488281 13.859375 -3.53125 C 14.742188 -4.570312 15.1875 -6.269531 15.1875 -8.625 L 15.1875 -18.1875 L 17.9375 -18.1875 L 17.9375 0 L 15.671875 0 L 15.265625 -2.4375 L 15.109375 -2.4375 C 14.546875 -1.539062 13.765625 -0.851562 12.765625 -0.375 C 11.765625 0.09375 10.625 0.328125 9.34375 0.328125 C 7.132812 0.328125 5.476562 -0.195312 4.375 -1.25 C 3.269531 -2.300781 2.71875 -3.984375 2.71875 -6.296875 L 2.71875 -18.1875 Z M 5.515625 -18.1875 "/></g></g></g><g fill="#8d33ff" fill-opacity="1"><g transform="translate(317.124258, 417.371023)"><g><path d="M 15.359375 0 L 15.359375 -11.765625 C 15.359375 -13.242188 15.019531 -14.347656 14.34375 -15.078125 C 13.675781 -15.804688 12.625 -16.171875 11.1875 -16.171875 C 9.28125 -16.171875 7.882812 -15.65625 7 -14.625 C 6.113281 -13.601562 5.671875 -11.910156 5.671875 -9.546875 L 5.671875 0 L 2.921875 0 L 2.921875 -18.1875 L 5.15625 -18.1875 L 5.609375 -15.703125 L 5.734375 -15.703125 C 6.304688 -16.597656 7.097656 -17.289062 8.109375 -17.78125 C 9.128906 -18.269531 10.265625 -18.515625 11.515625 -18.515625 C 13.703125 -18.515625 15.347656 -17.984375 16.453125 -16.921875 C 17.566406 -15.867188 18.125 -14.179688 18.125 -11.859375 L 18.125 0 Z M 15.359375 0 "/></g></g></g><g fill="#8d33ff" fill-opacity="1"><g transform="translate(337.983325, 417.371023)"><g/></g></g><g fill="#8d33ff" fill-opacity="1"><g transform="translate(346.811504, 417.371023)"><g><path d="M 11.390625 0.328125 C 10.203125 0.328125 9.117188 0.109375 8.140625 -0.328125 C 7.160156 -0.765625 6.335938 -1.4375 5.671875 -2.34375 L 5.46875 -2.34375 C 5.601562 -1.28125 5.671875 -0.269531 5.671875 0.6875 L 5.671875 8.171875 L 2.921875 8.171875 L 2.921875 -18.1875 L 5.15625 -18.1875 L 5.546875 -15.703125 L 5.671875 -15.703125 C 6.378906 -16.691406 7.203125 -17.40625 8.140625 -17.84375 C 9.085938 -18.289062 10.171875 -18.515625 11.390625 -18.515625 C 13.796875 -18.515625 15.65625 -17.691406 16.96875 -16.046875 C 18.28125 -14.398438 18.9375 -12.085938 18.9375 -9.109375 C 18.9375 -6.117188 18.269531 -3.796875 16.9375 -2.140625 C 15.601562 -0.492188 13.753906 0.328125 11.390625 0.328125 Z M 10.984375 -16.171875 C 9.128906 -16.171875 7.785156 -15.65625 6.953125 -14.625 C 6.117188 -13.601562 5.691406 -11.96875 5.671875 -9.71875 L 5.671875 -9.109375 C 5.671875 -6.554688 6.097656 -4.726562 6.953125 -3.625 C 7.804688 -2.519531 9.171875 -1.96875 11.046875 -1.96875 C 12.617188 -1.96875 13.847656 -2.601562 14.734375 -3.875 C 15.628906 -5.15625 16.078125 -6.910156 16.078125 -9.140625 C 16.078125 -11.410156 15.628906 -13.148438 14.734375 -14.359375 C 13.847656 -15.566406 12.597656 -16.171875 10.984375 -16.171875 Z M 10.984375 -16.171875 "/></g></g></g><g fill="#8d33ff" fill-opacity="1"><g transform="translate(367.637381, 417.371023)"><g><path d="M 18.625 -9.109375 C 18.625 -6.140625 17.875 -3.820312 16.375 -2.15625 C 14.882812 -0.5 12.820312 0.328125 10.1875 0.328125 C 8.5625 0.328125 7.117188 -0.0507812 5.859375 -0.8125 C 4.597656 -1.570312 3.625 -2.664062 2.9375 -4.09375 C 2.25 -5.519531 1.90625 -7.191406 1.90625 -9.109375 C 1.90625 -12.078125 2.644531 -14.382812 4.125 -16.03125 C 5.613281 -17.6875 7.675781 -18.515625 10.3125 -18.515625 C 12.851562 -18.515625 14.875 -17.664062 16.375 -15.96875 C 17.875 -14.28125 18.625 -11.992188 18.625 -9.109375 Z M 4.765625 -9.109375 C 4.765625 -6.785156 5.226562 -5.015625 6.15625 -3.796875 C 7.082031 -2.578125 8.445312 -1.96875 10.25 -1.96875 C 12.050781 -1.96875 13.421875 -2.570312 14.359375 -3.78125 C 15.296875 -5 15.765625 -6.773438 15.765625 -9.109375 C 15.765625 -11.421875 15.296875 -13.175781 14.359375 -14.375 C 13.421875 -15.570312 12.039062 -16.171875 10.21875 -16.171875 C 8.414062 -16.171875 7.054688 -15.578125 6.140625 -14.390625 C 5.222656 -13.210938 4.765625 -11.453125 4.765625 -9.109375 Z M 4.765625 -9.109375 "/></g></g></g><g fill="#8d33ff" fill-opacity="1"><g transform="translate(388.164573, 417.371023)"><g><path d="M 9.796875 -1.96875 C 11.628906 -1.96875 12.960938 -2.457031 13.796875 -3.4375 C 14.640625 -4.425781 15.09375 -6.09375 15.15625 -8.4375 L 15.15625 -9.046875 C 15.15625 -11.585938 14.722656 -13.414062 13.859375 -14.53125 C 12.992188 -15.65625 11.625 -16.21875 9.75 -16.21875 C 8.132812 -16.21875 6.898438 -15.585938 6.046875 -14.328125 C 5.191406 -13.078125 4.765625 -11.304688 4.765625 -9.015625 C 4.765625 -6.722656 5.1875 -4.972656 6.03125 -3.765625 C 6.875 -2.566406 8.128906 -1.96875 9.796875 -1.96875 Z M 9.375 0.328125 C 7.03125 0.328125 5.195312 -0.492188 3.875 -2.140625 C 2.5625 -3.785156 1.90625 -6.085938 1.90625 -9.046875 C 1.90625 -12.015625 2.566406 -14.332031 3.890625 -16 C 5.222656 -17.675781 7.070312 -18.515625 9.4375 -18.515625 C 11.925781 -18.515625 13.84375 -17.578125 15.1875 -15.703125 L 15.328125 -15.703125 L 15.734375 -18.1875 L 17.90625 -18.1875 L 17.90625 8.171875 L 15.15625 8.171875 L 15.15625 0.375 C 15.15625 -0.726562 15.210938 -1.664062 15.328125 -2.4375 L 15.109375 -2.4375 C 13.835938 -0.59375 11.925781 0.328125 9.375 0.328125 Z M 9.375 0.328125 "/></g></g></g><g fill="#8d33ff" fill-opacity="1"><g transform="translate(408.99045, 417.371023)"><g><path d="M 5.515625 -18.1875 L 5.515625 -6.390625 C 5.515625 -4.910156 5.847656 -3.800781 6.515625 -3.0625 C 7.191406 -2.332031 8.25 -1.96875 9.6875 -1.96875 C 11.59375 -1.96875 12.984375 -2.488281 13.859375 -3.53125 C 14.742188 -4.570312 15.1875 -6.269531 15.1875 -8.625 L 15.1875 -18.1875 L 17.9375 -18.1875 L 17.9375 0 L 15.671875 0 L 15.265625 -2.4375 L 15.109375 -2.4375 C 14.546875 -1.539062 13.765625 -0.851562 12.765625 -0.375 C 11.765625 0.09375 10.625 0.328125 9.34375 0.328125 C 7.132812 0.328125 5.476562 -0.195312 4.375 -1.25 C 3.269531 -2.300781 2.71875 -3.984375 2.71875 -6.296875 L 2.71875 -18.1875 Z M 5.515625 -18.1875 "/></g></g></g><g fill="#8d33ff" fill-opacity="1"><g transform="translate(429.849505, 417.371023)"><g><path d="M 5.671875 0 L 2.921875 0 L 2.921875 -18.1875 L 5.671875 -18.1875 Z M 2.6875 -23.109375 C 2.6875 -23.742188 2.84375 -24.207031 3.15625 -24.5 C 3.46875 -24.789062 3.851562 -24.9375 4.3125 -24.9375 C 4.757812 -24.9375 5.140625 -24.785156 5.453125 -24.484375 C 5.773438 -24.191406 5.9375 -23.734375 5.9375 -23.109375 C 5.9375 -22.492188 5.773438 -22.03125 5.453125 -21.71875 C 5.140625 -21.414062 4.757812 -21.265625 4.3125 -21.265625 C 3.851562 -21.265625 3.46875 -21.414062 3.15625 -21.71875 C 2.84375 -22.03125 2.6875 -22.492188 2.6875 -23.109375 Z M 2.6875 -23.109375 "/></g></g></g><g fill="#8d33ff" fill-opacity="1"><g transform="translate(438.445374, 417.371023)"><g><path d="M 8.796875 -1.9375 C 9.285156 -1.9375 9.753906 -1.972656 10.203125 -2.046875 C 10.660156 -2.117188 11.019531 -2.191406 11.28125 -2.265625 L 11.28125 -0.171875 C 10.976562 -0.0234375 10.535156 0.09375 9.953125 0.1875 C 9.378906 0.28125 8.859375 0.328125 8.390625 0.328125 C 4.878906 0.328125 3.125 -1.523438 3.125 -5.234375 L 3.125 -16.046875 L 0.515625 -16.046875 L 0.515625 -17.375 L 3.125 -18.515625 L 4.28125 -22.40625 L 5.875 -22.40625 L 5.875 -18.1875 L 11.15625 -18.1875 L 11.15625 -16.046875 L 5.875 -16.046875 L 5.875 -5.34375 C 5.875 -4.25 6.132812 -3.40625 6.65625 -2.8125 C 7.175781 -2.226562 7.890625 -1.9375 8.796875 -1.9375 Z M 8.796875 -1.9375 "/></g></g></g><g fill="#8d33ff" fill-opacity="1"><g transform="translate(450.443074, 417.371023)"><g><path d="M 18.625 -9.109375 C 18.625 -6.140625 17.875 -3.820312 16.375 -2.15625 C 14.882812 -0.5 12.820312 0.328125 10.1875 0.328125 C 8.5625 0.328125 7.117188 -0.0507812 5.859375 -0.8125 C 4.597656 -1.570312 3.625 -2.664062 2.9375 -4.09375 C 2.25 -5.519531 1.90625 -7.191406 1.90625 -9.109375 C 1.90625 -12.078125 2.644531 -14.382812 4.125 -16.03125 C 5.613281 -17.6875 7.675781 -18.515625 10.3125 -18.515625 C 12.851562 -18.515625 14.875 -17.664062 16.375 -15.96875 C 17.875 -14.28125 18.625 -11.992188 18.625 -9.109375 Z M 4.765625 -9.109375 C 4.765625 -6.785156 5.226562 -5.015625 6.15625 -3.796875 C 7.082031 -2.578125 8.445312 -1.96875 10.25 -1.96875 C 12.050781 -1.96875 13.421875 -2.570312 14.359375 -3.78125 C 15.296875 -5 15.765625 -6.773438 15.765625 -9.109375 C 15.765625 -11.421875 15.296875 -13.175781 14.359375 -14.375 C 13.421875 -15.570312 12.039062 -16.171875 10.21875 -16.171875 C 8.414062 -16.171875 7.054688 -15.578125 6.140625 -14.390625 C 5.222656 -13.210938 4.765625 -11.453125 4.765625 -9.109375 Z M 4.765625 -9.109375 "/></g></g></g><g fill="#8d33ff" fill-opacity="1"><g transform="translate(470.970242, 417.371023)"><g/></g></g><g fill="#8d33ff" fill-opacity="1"><g transform="translate(479.798421, 417.371023)"><g><path d="M 15.296875 -2.4375 L 15.15625 -2.4375 C 13.875 -0.59375 11.96875 0.328125 9.4375 0.328125 C 7.0625 0.328125 5.210938 -0.484375 3.890625 -2.109375 C 2.566406 -3.734375 1.90625 -6.046875 1.90625 -9.046875 C 1.90625 -12.046875 2.566406 -14.375 3.890625 -16.03125 C 5.222656 -17.6875 7.070312 -18.515625 9.4375 -18.515625 C 11.90625 -18.515625 13.796875 -17.617188 15.109375 -15.828125 L 15.328125 -15.828125 L 15.21875 -17.140625 L 15.15625 -18.421875 L 15.15625 -25.8125 L 17.90625 -25.8125 L 17.90625 0 L 15.671875 0 Z M 9.796875 -1.96875 C 11.671875 -1.96875 13.03125 -2.476562 13.875 -3.5 C 14.726562 -4.53125 15.15625 -6.1875 15.15625 -8.46875 L 15.15625 -9.046875 C 15.15625 -11.617188 14.722656 -13.457031 13.859375 -14.5625 C 13.003906 -15.664062 11.632812 -16.21875 9.75 -16.21875 C 8.132812 -16.21875 6.898438 -15.585938 6.046875 -14.328125 C 5.191406 -13.078125 4.765625 -11.304688 4.765625 -9.015625 C 4.765625 -6.691406 5.1875 -4.9375 6.03125 -3.75 C 6.882812 -2.5625 8.140625 -1.96875 9.796875 -1.96875 Z M 9.796875 -1.96875 "/></g></g></g><g fill="#8d33ff" fill-opacity="1"><g transform="translate(500.624299, 417.371023)"><g><path d="M 10.609375 0.328125 C 7.921875 0.328125 5.796875 -0.488281 4.234375 -2.125 C 2.679688 -3.757812 1.90625 -6.03125 1.90625 -8.9375 C 1.90625 -11.875 2.625 -14.203125 4.0625 -15.921875 C 5.507812 -17.648438 7.453125 -18.515625 9.890625 -18.515625 C 12.171875 -18.515625 13.972656 -17.765625 15.296875 -16.265625 C 16.628906 -14.765625 17.296875 -12.789062 17.296875 -10.34375 L 17.296875 -8.59375 L 4.765625 -8.59375 C 4.816406 -6.457031 5.351562 -4.835938 6.375 -3.734375 C 7.40625 -2.628906 8.847656 -2.078125 10.703125 -2.078125 C 12.660156 -2.078125 14.597656 -2.484375 16.515625 -3.296875 L 16.515625 -0.84375 C 15.535156 -0.425781 14.613281 -0.128906 13.75 0.046875 C 12.882812 0.234375 11.835938 0.328125 10.609375 0.328125 Z M 9.859375 -16.21875 C 8.398438 -16.21875 7.234375 -15.738281 6.359375 -14.78125 C 5.492188 -13.832031 4.984375 -12.515625 4.828125 -10.828125 L 14.34375 -10.828125 C 14.34375 -12.566406 13.953125 -13.898438 13.171875 -14.828125 C 12.398438 -15.753906 11.296875 -16.21875 9.859375 -16.21875 Z M 9.859375 -16.21875 "/></g></g></g><g fill="#8d33ff" fill-opacity="1"><g transform="translate(519.691167, 417.371023)"><g/></g></g><g fill="#8d33ff" fill-opacity="1"><g transform="translate(528.519346, 417.371023)"><g><path d="M 8.796875 -1.9375 C 9.285156 -1.9375 9.753906 -1.972656 10.203125 -2.046875 C 10.660156 -2.117188 11.019531 -2.191406 11.28125 -2.265625 L 11.28125 -0.171875 C 10.976562 -0.0234375 10.535156 0.09375 9.953125 0.1875 C 9.378906 0.28125 8.859375 0.328125 8.390625 0.328125 C 4.878906 0.328125 3.125 -1.523438 3.125 -5.234375 L 3.125 -16.046875 L 0.515625 -16.046875 L 0.515625 -17.375 L 3.125 -18.515625 L 4.28125 -22.40625 L 5.875 -22.40625 L 5.875 -18.1875 L 11.15625 -18.1875 L 11.15625 -16.046875 L 5.875 -16.046875 L 5.875 -5.34375 C 5.875 -4.25 6.132812 -3.40625 6.65625 -2.8125 C 7.175781 -2.226562 7.890625 -1.9375 8.796875 -1.9375 Z M 8.796875 -1.9375 "/></g></g></g><g fill="#8d33ff" fill-opacity="1"><g transform="translate(540.517045, 417.371023)"><g><path d="M 10.609375 0.328125 C 7.921875 0.328125 5.796875 -0.488281 4.234375 -2.125 C 2.679688 -3.757812 1.90625 -6.03125 1.90625 -8.9375 C 1.90625 -11.875 2.625 -14.203125 4.0625 -15.921875 C 5.507812 -17.648438 7.453125 -18.515625 9.890625 -18.515625 C 12.171875 -18.515625 13.972656 -17.765625 15.296875 -16.265625 C 16.628906 -14.765625 17.296875 -12.789062 17.296875 -10.34375 L 17.296875 -8.59375 L 4.765625 -8.59375 C 4.816406 -6.457031 5.351562 -4.835938 6.375 -3.734375 C 7.40625 -2.628906 8.847656 -2.078125 10.703125 -2.078125 C 12.660156 -2.078125 14.597656 -2.484375 16.515625 -3.296875 L 16.515625 -0.84375 C 15.535156 -0.425781 14.613281 -0.128906 13.75 0.046875 C 12.882812 0.234375 11.835938 0.328125 10.609375 0.328125 Z M 9.859375 -16.21875 C 8.398438 -16.21875 7.234375 -15.738281 6.359375 -14.78125 C 5.492188 -13.832031 4.984375 -12.515625 4.828125 -10.828125 L 14.34375 -10.828125 C 14.34375 -12.566406 13.953125 -13.898438 13.171875 -14.828125 C 12.398438 -15.753906 11.296875 -16.21875 9.859375 -16.21875 Z M 9.859375 -16.21875 "/></g></g></g><g fill="#8d33ff" fill-opacity="1"><g transform="translate(559.583937, 417.371023)"><g><path d="M 7.296875 -9.3125 L 0.984375 -18.1875 L 4.109375 -18.1875 L 8.90625 -11.21875 L 13.6875 -18.1875 L 16.796875 -18.1875 L 10.46875 -9.3125 L 17.125 0 L 14 0 L 8.90625 -7.375 L 3.765625 0 L 0.640625 0 Z M 7.296875 -9.3125 "/></g></g></g><g fill="#8d33ff" fill-opacity="1"><g transform="translate(577.389659, 417.371023)"><g><path d="M 8.796875 -1.9375 C 9.285156 -1.9375 9.753906 -1.972656 10.203125 -2.046875 C 10.660156 -2.117188 11.019531 -2.191406 11.28125 -2.265625 L 11.28125 -0.171875 C 10.976562 -0.0234375 10.535156 0.09375 9.953125 0.1875 C 9.378906 0.28125 8.859375 0.328125 8.390625 0.328125 C 4.878906 0.328125 3.125 -1.523438 3.125 -5.234375 L 3.125 -16.046875 L 0.515625 -16.046875 L 0.515625 -17.375 L 3.125 -18.515625 L 4.28125 -22.40625 L 5.875 -22.40625 L 5.875 -18.1875 L 11.15625 -18.1875 L 11.15625 -16.046875 L 5.875 -16.046875 L 5.875 -5.34375 C 5.875 -4.25 6.132812 -3.40625 6.65625 -2.8125 C 7.175781 -2.226562 7.890625 -1.9375 8.796875 -1.9375 Z M 8.796875 -1.9375 "/></g></g></g><g fill="#8d33ff" fill-opacity="1"><g transform="translate(589.387359, 417.371023)"><g><path d="M 18.625 -9.109375 C 18.625 -6.140625 17.875 -3.820312 16.375 -2.15625 C 14.882812 -0.5 12.820312 0.328125 10.1875 0.328125 C 8.5625 0.328125 7.117188 -0.0507812 5.859375 -0.8125 C 4.597656 -1.570312 3.625 -2.664062 2.9375 -4.09375 C 2.25 -5.519531 1.90625 -7.191406 1.90625 -9.109375 C 1.90625 -12.078125 2.644531 -14.382812 4.125 -16.03125 C 5.613281 -17.6875 7.675781 -18.515625 10.3125 -18.515625 C 12.851562 -18.515625 14.875 -17.664062 16.375 -15.96875 C 17.875 -14.28125 18.625 -11.992188 18.625 -9.109375 Z M 4.765625 -9.109375 C 4.765625 -6.785156 5.226562 -5.015625 6.15625 -3.796875 C 7.082031 -2.578125 8.445312 -1.96875 10.25 -1.96875 C 12.050781 -1.96875 13.421875 -2.570312 14.359375 -3.78125 C 15.296875 -5 15.765625 -6.773438 15.765625 -9.109375 C 15.765625 -11.421875 15.296875 -13.175781 14.359375 -14.375 C 13.421875 -15.570312 12.039062 -16.171875 10.21875 -16.171875 C 8.414062 -16.171875 7.054688 -15.578125 6.140625 -14.390625 C 5.222656 -13.210938 4.765625 -11.453125 4.765625 -9.109375 Z M 4.765625 -9.109375 "/></g></g></g></svg>